<?xml version="1.0" encoding="us-ascii" standalone="no"?><svg xmlns="http://www.w3.org/2000/svg" xmlns:xlink="http://www.w3.org/1999/xlink" contentStyleType="text/css" height="655px" preserveAspectRatio="none" style="width:913px;height:655px;background:#FFFFFF;" version="1.1" viewBox="0 0 913 655" width="913px" zoomAndPan="magnify"><defs/><g><!--cluster LDO--><g id="cluster_LDO"><path d="M8.5,14 L38.5,14 A3.75,3.75 0 0 1 41,16.5 L48,37.6094 L145.5,37.6094 A2.5,2.5 0 0 1 148,40.1094 L148,111.5 A2.5,2.5 0 0 1 145.5,114 L8.5,114 A2.5,2.5 0 0 1 6,111.5 L6,16.5 A2.5,2.5 0 0 1 8.5,14 " fill="none" style="stroke:#000000;stroke-width:1.5;"/><line style="stroke:#000000;stroke-width:1.5;" x1="6" x2="48" y1="37.6094" y2="37.6094"/><text fill="#000000" font-family="sans-serif" font-size="14" font-weight="bold" lengthAdjust="spacing" textLength="29" x="10" y="30.5332">LDO</text></g><!--cluster MCU--><g id="cluster_MCU"><path d="M210.5,14 L244.5,14 A3.75,3.75 0 0 1 247,16.5 L254,37.6094 L375.5,37.6094 A2.5,2.5 0 0 1 378,40.1094 L378,111.5 A2.5,2.5 0 0 1 375.5,114 L210.5,114 A2.5,2.5 0 0 1 208,111.5 L208,16.5 A2.5,2.5 0 0 1 210.5,14 " fill="none" style="stroke:#000000;stroke-width:1.5;"/><line style="stroke:#000000;stroke-width:1.5;" x1="208" x2="254" y1="37.6094" y2="37.6094"/><text fill="#000000" font-family="sans-serif" font-size="14" font-weight="bold" lengthAdjust="spacing" textLength="33" x="212" y="30.5332">MCU</text></g><!--cluster Codec--><g id="cluster_Codec"><path d="M555.5,6 L601.5,6 A3.75,3.75 0 0 1 604,8.5 L611,29.6094 L719.5,29.6094 A2.5,2.5 0 0 1 722,32.1094 L722,119.5 A2.5,2.5 0 0 1 719.5,122 L555.5,122 A2.5,2.5 0 0 1 553,119.5 L553,8.5 A2.5,2.5 0 0 1 555.5,6 " fill="none" style="stroke:#000000;stroke-width:1.5;"/><line style="stroke:#000000;stroke-width:1.5;" x1="553" x2="611" y1="29.6094" y2="29.6094"/><text fill="#000000" font-family="sans-serif" font-size="14" font-weight="bold" lengthAdjust="spacing" textLength="45" x="557" y="22.5332">Codec</text></g><!--cluster FilterStage--><g id="cluster_FilterStage"><path d="M329.5,188 L407.5,188 A3.75,3.75 0 0 1 410,190.5 L417,211.6094 L558.5,211.6094 A2.5,2.5 0 0 1 561,214.1094 L561,645.5 A2.5,2.5 0 0 1 558.5,648 L329.5,648 A2.5,2.5 0 0 1 327,645.5 L327,190.5 A2.5,2.5 0 0 1 329.5,188 " fill="none" style="stroke:#000000;stroke-width:1.5;"/><line style="stroke:#000000;stroke-width:1.5;" x1="327" x2="417" y1="211.6094" y2="211.6094"/><text fill="#000000" font-family="sans-serif" font-size="14" font-weight="bold" lengthAdjust="spacing" textLength="77" x="331" y="204.5332">FilterStage</text></g><!--cluster Amp1 - Single Supply--><g id="cluster_Amp1 - Single Supply"><path d="M369.5,240 L516.5,240 A3.75,3.75 0 0 1 519,242.5 L526,263.6094 L526.5,263.6094 A2.5,2.5 0 0 1 529,266.1094 L529,337.5 A2.5,2.5 0 0 1 526.5,340 L369.5,340 A2.5,2.5 0 0 1 367,337.5 L367,242.5 A2.5,2.5 0 0 1 369.5,240 " fill="none" style="stroke:#000000;stroke-width:1.5;"/><line style="stroke:#000000;stroke-width:1.5;" x1="367" x2="526" y1="263.6094" y2="263.6094"/><text fill="#000000" font-family="sans-serif" font-size="14" font-weight="bold" lengthAdjust="spacing" textLength="146" x="371" y="256.5332">Amp1 - Single Supply</text></g><!--cluster Amp2 - Single Supply--><g id="cluster_Amp2 - Single Supply"><path d="M369.5,516 L516.5,516 A3.75,3.75 0 0 1 519,518.5 L526,539.6094 L526.5,539.6094 A2.5,2.5 0 0 1 529,542.1094 L529,613.5 A2.5,2.5 0 0 1 526.5,616 L369.5,616 A2.5,2.5 0 0 1 367,613.5 L367,518.5 A2.5,2.5 0 0 1 369.5,516 " fill="none" style="stroke:#000000;stroke-width:1.5;"/><line style="stroke:#000000;stroke-width:1.5;" x1="367" x2="526" y1="539.6094" y2="539.6094"/><text fill="#000000" font-family="sans-serif" font-size="14" font-weight="bold" lengthAdjust="spacing" textLength="146" x="371" y="532.5332">Amp2 - Single Supply</text></g><!--cluster Power Amp Stage--><g id="cluster_Power Amp Stage"><path d="M770.5,516 L893.5,516 A3.75,3.75 0 0 1 896,518.5 L903,539.6094 L903.5,539.6094 A2.5,2.5 0 0 1 906,542.1094 L906,613.5 A2.5,2.5 0 0 1 903.5,616 L770.5,616 A2.5,2.5 0 0 1 768,613.5 L768,518.5 A2.5,2.5 0 0 1 770.5,516 " fill="none" style="stroke:#000000;stroke-width:1.5;"/><line style="stroke:#000000;stroke-width:1.5;" x1="768" x2="903" y1="539.6094" y2="539.6094"/><text fill="#000000" font-family="sans-serif" font-size="14" font-weight="bold" lengthAdjust="spacing" textLength="122" x="772" y="532.5332">Power Amp Stage</text></g><!--entity LM2940CT--><g id="elem_LM2940CT"><rect fill="#F1F1F1" height="47.6094" rx="2.5" ry="2.5" style="stroke:#181818;stroke-width:0.5;" width="110" x="22" y="50"/><rect fill="#F1F1F1" height="10" style="stroke:#181818;stroke-width:0.5;" width="15" x="112" y="55"/><rect fill="#F1F1F1" height="2" style="stroke:#181818;stroke-width:0.5;" width="4" x="110" y="57"/><rect fill="#F1F1F1" height="2" style="stroke:#181818;stroke-width:0.5;" width="4" x="110" y="61"/><text fill="#000000" font-family="sans-serif" font-size="14" lengthAdjust="spacing" textLength="70" x="37" y="84.5332">LM2940CT</text></g><!--entity ESP32 I2S Pins--><g id="elem_ESP32 I2S Pins"><rect fill="#F1F1F1" height="47.6094" rx="2.5" ry="2.5" style="stroke:#181818;stroke-width:0.5;" width="138" x="224" y="50"/><rect fill="#F1F1F1" height="10" style="stroke:#181818;stroke-width:0.5;" width="15" x="342" y="55"/><rect fill="#F1F1F1" height="2" style="stroke:#181818;stroke-width:0.5;" width="4" x="340" y="57"/><rect fill="#F1F1F1" height="2" style="stroke:#181818;stroke-width:0.5;" width="4" x="340" y="61"/><text fill="#000000" font-family="sans-serif" font-size="14" lengthAdjust="spacing" textLength="98" x="239" y="84.5332">ESP32 I2S Pins</text></g><!--entity PCM5102--><g id="elem_PCM5102"><rect fill="#F1F1F1" height="47.6094" rx="2.5" ry="2.5" style="stroke:#181818;stroke-width:0.5;" width="102" x="596" y="50"/><rect fill="#F1F1F1" height="10" style="stroke:#181818;stroke-width:0.5;" width="15" x="678" y="55"/><rect fill="#F1F1F1" height="2" style="stroke:#181818;stroke-width:0.5;" width="4" x="676" y="57"/><rect fill="#F1F1F1" height="2" style="stroke:#181818;stroke-width:0.5;" width="4" x="676" y="61"/><text fill="#000000" font-family="sans-serif" font-size="14" lengthAdjust="spacing" textLength="62" x="611" y="84.5332">PCM5102</text></g><!--entity ES2 Lab Circuit--><g id="elem_ES2 Lab Circuit"><rect fill="#F1F1F1" height="47.6094" rx="2.5" ry="2.5" style="stroke:#181818;stroke-width:0.5;" width="138" x="366" y="404"/><rect fill="#F1F1F1" height="10" style="stroke:#181818;stroke-width:0.5;" width="15" x="484" y="409"/><rect fill="#F1F1F1" height="2" style="stroke:#181818;stroke-width:0.5;" width="4" x="482" y="411"/><rect fill="#F1F1F1" height="2" style="stroke:#181818;stroke-width:0.5;" width="4" x="482" y="415"/><text fill="#000000" font-family="sans-serif" font-size="14" lengthAdjust="spacing" textLength="98" x="381" y="438.5332">ES2 Lab Circuit</text></g><!--entity MCP6001_1--><g id="elem_MCP6001_1"><rect fill="#F1F1F1" height="47.6094" rx="2.5" ry="2.5" style="stroke:#181818;stroke-width:0.5;" width="118" x="383" y="276"/><rect fill="#F1F1F1" height="10" style="stroke:#181818;stroke-width:0.5;" width="15" x="481" y="281"/><rect fill="#F1F1F1" height="2" style="stroke:#181818;stroke-width:0.5;" width="4" x="479" y="283"/><rect fill="#F1F1F1" height="2" style="stroke:#181818;stroke-width:0.5;" width="4" x="479" y="287"/><text fill="#000000" font-family="sans-serif" font-size="14" lengthAdjust="spacing" textLength="78" x="398" y="310.5332">MCP6001_1</text></g><!--entity MCP6001_2--><g id="elem_MCP6001_2"><rect fill="#F1F1F1" height="47.6094" rx="2.5" ry="2.5" style="stroke:#181818;stroke-width:0.5;" width="118" x="383" y="552"/><rect fill="#F1F1F1" height="10" style="stroke:#181818;stroke-width:0.5;" width="15" x="481" y="557"/><rect fill="#F1F1F1" height="2" style="stroke:#181818;stroke-width:0.5;" width="4" x="479" y="559"/><rect fill="#F1F1F1" height="2" style="stroke:#181818;stroke-width:0.5;" width="4" x="479" y="563"/><text fill="#000000" font-family="sans-serif" font-size="14" lengthAdjust="spacing" textLength="78" x="398" y="586.5332">MCP6001_2</text></g><!--entity TPA711--><g id="elem_TPA711"><rect fill="#F1F1F1" height="47.6094" rx="2.5" ry="2.5" style="stroke:#181818;stroke-width:0.5;" width="91" x="791.5" y="552"/><rect fill="#F1F1F1" height="10" style="stroke:#181818;stroke-width:0.5;" width="15" x="862.5" y="557"/><rect fill="#F1F1F1" height="2" style="stroke:#181818;stroke-width:0.5;" width="4" x="860.5" y="559"/><rect fill="#F1F1F1" height="2" style="stroke:#181818;stroke-width:0.5;" width="4" x="860.5" y="563"/><text fill="#000000" font-family="sans-serif" font-size="14" lengthAdjust="spacing" textLength="51" x="806.5" y="586.5332">TPA711</text></g><!--link LM2940CT to ESP32 I2S Pins--><g id="link_LM2940CT_ESP32 I2S Pins"><path d="M132.06,74 C159.94,74 188.06,74 217.7,74 " fill="none" id="LM2940CT-to-ESP32 I2S Pins" style="stroke:#181818;stroke-width:1.0;"/><polygon fill="#181818" points="223.7,74,214.7,70,218.7,74,214.7,78,223.7,74" style="stroke:#181818;stroke-width:1.0;"/><text fill="#000000" font-family="sans-serif" font-size="13" lengthAdjust="spacing" textLength="55" x="150.5" y="67.4951">stable 5V</text></g><!--link ESP32 I2S Pins to Codec--><g id="link_ESP32 I2S Pins_Codec"><path d="M362.02,74 C399.86,74 446.825,74 485.6238,74 C505.0231,74 522.3809,74 535.5358,74 C542.1132,74 547.6399,74 551.8456,74 C552.1085,74 552.3662,74 552.6187,74 C552.7449,74 546.8698,74 546.9935,74 " fill="none" id="ESP32 I2S Pins-to-Codec" style="stroke:#181818;stroke-width:1.0;"/><polygon fill="#181818" points="552.9935,74,543.9935,70,547.9935,74,543.9935,78,552.9935,74" style="stroke:#181818;stroke-width:1.0;"/><text fill="#000000" font-family="sans-serif" font-size="13" lengthAdjust="spacing" textLength="162" x="380.32" y="67.4951">Bluetooth Signal Conversion</text></g><!--link Codec to FilterStage--><g id="link_Codec_FilterStage"><path d="M552.6548,76.5896 C552.5184,76.6176 552.3805,76.6459 552.2411,76.6747 C551.6835,76.7897 551.1017,76.9111 550.4967,77.0388 C549.2867,77.2944 547.9833,77.5757 546.5927,77.8836 C543.8116,78.4994 540.6814,79.2218 537.2505,80.058 C523.5266,83.4028 504.9894,88.5694 484.7212,96.0263 C444.185,110.94 396.725,135.015 367,172 C364.7563,174.7913 362.6675,177.7198 360.7231,180.7581 C359.7509,182.2773 358.8148,183.8239 357.9134,185.3945 C357.4628,186.1798 359.8876,181.7004 359.4542,182.4973 " fill="none" id="Codec-to-FilterStage" style="stroke:#181818;stroke-width:1.0;"/><polygon fill="#181818" points="356.5873,187.768,364.4015,181.7731,358.9764,183.3757,357.3737,177.9506,356.5873,187.768" style="stroke:#181818;stroke-width:1.0;"/><text fill="#000000" font-family="sans-serif" font-size="13" lengthAdjust="spacing" textLength="114" x="392" y="160.4951">Signal Amplification</text></g><!--link MCP6001_1 to ES2 Lab Circuit--><g id="link_MCP6001_1_ES2 Lab Circuit"><path d="M440.72,324.11 C439.46,346.7 437.8927,374.9292 436.6327,397.6192 " fill="none" id="MCP6001_1-to-ES2 Lab Circuit" style="stroke:#181818;stroke-width:1.0;"/><polygon fill="#181818" points="436.3,403.61,440.7929,394.8456,436.5772,398.6177,432.8052,394.4021,436.3,403.61" style="stroke:#181818;stroke-width:1.0;"/><text fill="#000000" font-family="sans-serif" font-size="13" lengthAdjust="spacing" textLength="46" x="439" y="370.4951">Filtering</text></g><!--link ES2 Lab Circuit to MCP6001_2--><g id="link_ES2 Lab Circuit_MCP6001_2"><path d="M436.11,452.13 C437.42,479.47 439.3023,518.6869 440.6123,545.9769 " fill="none" id="ES2 Lab Circuit-to-MCP6001_2" style="stroke:#181818;stroke-width:1.0;"/><polygon fill="#181818" points="440.9,551.97,444.4639,542.7886,440.6603,546.9758,436.4731,543.1721,440.9,551.97" style="stroke:#181818;stroke-width:1.0;"/><text fill="#000000" font-family="sans-serif" font-size="13" lengthAdjust="spacing" textLength="114" x="439" y="496.4951">Signal Amplification</text></g><!--link MCP6001_2 to TPA711--><g id="link_MCP6001_2_TPA711"><path d="M501.14,576 C580.44,576 713.57,576 785.33,576 " fill="none" id="MCP6001_2-to-TPA711" style="stroke:#181818;stroke-width:1.0;"/><polygon fill="#181818" points="791.33,576,782.33,572,786.33,576,782.33,580,791.33,576" style="stroke:#181818;stroke-width:1.0;"/><text fill="#000000" font-family="sans-serif" font-size="13" lengthAdjust="spacing" textLength="254" x="519.25" y="569.4951">Power Amplification with AUX/Speaker send</text></g><!--link Codec to TPA711--><g id="link_Codec_TPA711"><path d="M573.845,122.0875 C573.9202,122.3049 573.9957,122.5223 574.0714,122.7396 C574.6776,124.4779 575.302,126.2121 575.9438,127.9321 C577.2275,131.372 578.5813,134.755 580,138 C653.18,305.33 773.1423,483.5855 817.2723,546.9855 " fill="none" id="Codec-to-TPA711" style="stroke:#181818;stroke-width:1.0;"/><polygon fill="#181818" points="820.7,551.91,818.8414,542.2381,817.8436,547.8063,812.2754,546.8084,820.7,551.91" style="stroke:#181818;stroke-width:1.0;"/><text fill="#000000" font-family="sans-serif" font-size="13" lengthAdjust="spacing" textLength="94" x="705" y="370.4951">Unfiltered Signal</text></g><!--SRC=[XP11IyD058Jl-ok6teF9QXLx4Egg83GOI2j2AB9Dj-dIc8HaQn7nl_kQR9De3jtRycRcpViA6UzaeZ2QFRoCyCs0QERpsojNp9ViXx7YDFV5miuVm-2Iuvc727HMBV579lArYgqm4FxOS_a_nPDEZIf3Gvz61xIpwKVXmK6eioHL2FT5aNwTH94lWclNzTuz2WGeikx2CPCh25t6UsreCWZaPmEv3Uot3FA3Aa5sz9f6ys1wutdDGHqdEALEjiQv6x2Pe39oHPl7hsp0hRDHSisDzFVfNfayDrlgd6GoXSYpJrLMEi_0hEfOtgbjpOjwI2d26gbxgZSwbeQyh4-lym_uJT1a4I-m8TtMrw4xju_RVRrRBSK9MiYT4GTDjqyNRnTXeUIEnfNArktbn_MTVv5jwhPgVIh1VW40]--></g></svg>